# 3ds Max Wavefront OBJ Exporter v0.97b - (c)2007 guruware
# File Created: 05.12.2018 21:07:09

mtllib tac.mtl

#
# object poolstick
#

v  44.0664 0.0000 -0.0000
v  44.0664 0.2123 0.3678
v  44.0664 0.1099 0.4102
v  44.0664 0.0000 0.4247
v  44.0664 0.3678 0.2123
v  44.0664 0.3003 0.3003
v  44.0664 0.4247 -0.0000
v  44.0664 0.4102 0.1099
v  44.0664 0.3678 -0.2123
v  44.0664 0.4102 -0.1099
v  44.0664 0.2123 -0.3678
v  44.0664 0.3003 -0.3003
v  44.0664 -0.0000 -0.4247
v  44.0664 0.1099 -0.4102
v  44.0664 -0.2123 -0.3678
v  44.0664 -0.1099 -0.4102
v  44.0664 -0.3678 -0.2123
v  44.0664 -0.3003 -0.3003
v  44.0664 -0.4247 0.0000
v  44.0664 -0.4102 -0.1099
v  44.0664 -0.3678 0.2123
v  44.0664 -0.4102 0.1099
v  44.0664 -0.2123 0.3678
v  44.0664 -0.3003 0.3003
v  44.0664 -0.1099 0.4102
v  32.0427 0.1099 0.4102
v  32.0427 0.0000 0.4247
v  32.0427 0.2123 0.3678
v  32.0427 0.3003 0.3003
v  32.0427 0.3678 0.2123
v  32.0427 0.4102 0.1099
v  32.0427 0.4247 -0.0000
v  32.0427 0.4102 -0.1099
v  32.0427 0.3678 -0.2123
v  32.0427 0.3003 -0.3003
v  32.0427 0.2123 -0.3678
v  32.0427 0.1099 -0.4102
v  32.0427 0.0000 -0.4247
v  32.0427 -0.1099 -0.4102
v  32.0427 -0.2123 -0.3678
v  32.0427 -0.3003 -0.3003
v  32.0427 -0.3678 -0.2123
v  32.0427 -0.4102 -0.1099
v  32.0427 -0.4247 -0.0000
v  32.0427 -0.4102 0.1099
v  32.0427 -0.3678 0.2123
v  32.0427 -0.3003 0.3003
v  32.0427 -0.2123 0.3678
v  32.0427 -0.1099 0.4102
v  0.0078 0.0424 0.1584
v  0.0078 0.0000 0.1640
v  0.0078 0.0820 0.1420
v  0.0078 0.1159 0.1159
v  0.0078 0.1420 0.0820
v  0.0078 0.1584 0.0424
v  0.0078 0.1640 -0.0000
v  0.0078 0.1584 -0.0424
v  0.0078 0.1420 -0.0820
v  0.0078 0.1159 -0.1159
v  0.0078 0.0820 -0.1420
v  0.0078 0.0424 -0.1584
v  0.0078 0.0000 -0.1640
v  0.0078 -0.0424 -0.1584
v  0.0078 -0.0820 -0.1420
v  0.0078 -0.1159 -0.1159
v  0.0078 -0.1420 -0.0820
v  0.0078 -0.1584 -0.0424
v  0.0078 -0.1640 -0.0000
v  0.0078 -0.1584 0.0424
v  0.0078 -0.1420 0.0820
v  0.0078 -0.1159 0.1159
v  0.0078 -0.0820 0.1420
v  0.0078 -0.0424 0.1584
v  0.0078 0.0000 -0.0000
# 74 vertices

vn 1.0000 -0.0000 0.0000
vn 0.6789 0.3671 0.6359
vn 0.6789 0.1900 0.7092
vn 0.6789 -0.0000 0.7342
vn 0.6789 0.6359 0.3671
vn 0.6789 0.5192 0.5192
vn 0.6790 0.7342 -0.0000
vn 0.6789 0.7092 0.1900
vn 0.6789 0.6359 -0.3671
vn 0.6789 0.7092 -0.1900
vn 0.6789 0.3671 -0.6359
vn 0.6789 0.5192 -0.5192
vn 0.6790 -0.0000 -0.7342
vn 0.6789 0.1900 -0.7092
vn 0.6789 -0.3671 -0.6359
vn 0.6789 -0.1900 -0.7092
vn 0.6789 -0.6359 -0.3671
vn 0.6789 -0.5192 -0.5192
vn 0.6789 -0.7342 -0.0000
vn 0.6789 -0.7092 -0.1900
vn 0.6789 -0.6359 0.3671
vn 0.6789 -0.7092 0.1900
vn 0.6789 -0.3671 0.6359
vn 0.6789 -0.5192 0.5192
vn 0.6789 -0.1900 0.7092
vn -0.0041 0.2588 0.9659
vn -0.0041 -0.0000 1.0000
vn -0.0041 0.5000 0.8660
vn -0.0041 0.7071 0.7071
vn -0.0041 0.8660 0.5000
vn -0.0041 0.9659 0.2588
vn -0.0041 1.0000 -0.0000
vn -0.0041 0.9659 -0.2588
vn -0.0041 0.8660 -0.5000
vn -0.0041 0.7071 -0.7071
vn -0.0041 0.5000 -0.8660
vn -0.0041 0.2588 -0.9659
vn -0.0041 -0.0000 -1.0000
vn -0.0041 -0.2588 -0.9659
vn -0.0041 -0.5000 -0.8660
vn -0.0041 -0.7071 -0.7071
vn -0.0041 -0.8660 -0.5000
vn -0.0041 -0.9659 -0.2588
vn -0.0041 -1.0000 -0.0000
vn -0.0041 -0.9659 0.2588
vn -0.0041 -0.8660 0.5000
vn -0.0041 -0.7071 0.7071
vn -0.0041 -0.5000 0.8660
vn -0.0041 -0.2588 0.9659
vn -0.6818 0.1893 0.7066
vn -0.6818 0.0000 0.7315
vn -0.6818 0.3658 0.6335
vn -0.6818 0.5173 0.5173
vn -0.6818 0.6335 0.3658
vn -0.6818 0.7066 0.1893
vn -0.6818 0.7315 -0.0000
vn -0.6818 0.7066 -0.1893
vn -0.6818 0.6335 -0.3658
vn -0.6818 0.5173 -0.5173
vn -0.6818 0.3658 -0.6335
vn -0.6818 0.1893 -0.7066
vn -0.6818 0.0000 -0.7315
vn -0.6818 -0.1893 -0.7066
vn -0.6818 -0.3658 -0.6335
vn -0.6818 -0.5173 -0.5173
vn -0.6818 -0.6335 -0.3658
vn -0.6818 -0.7066 -0.1893
vn -0.6818 -0.7315 0.0000
vn -0.6818 -0.7066 0.1893
vn -0.6818 -0.6335 0.3658
vn -0.6818 -0.5173 0.5173
vn -0.6818 -0.3658 0.6335
vn -0.6818 -0.1893 0.7066
vn -1.0000 0.0000 -0.0000
# 74 vertex normals

vt 0.5000 0.5000 -0.7358
vt 0.4877 0.4929 -0.7358
vt 0.4863 0.4963 -0.7358
vt 0.4858 0.5000 -0.7358
vt 0.4929 0.4877 -0.7358
vt 0.4900 0.4900 -0.7358
vt 0.5000 0.4858 -0.7358
vt 0.4963 0.4863 -0.7358
vt 0.5071 0.4877 -0.7358
vt 0.5037 0.4863 -0.7358
vt 0.5123 0.4929 -0.7358
vt 0.5100 0.4900 -0.7358
vt 0.5142 0.5000 -0.7358
vt 0.5137 0.4963 -0.7358
vt 0.5123 0.5071 -0.7358
vt 0.5137 0.5037 -0.7358
vt 0.5071 0.5123 -0.7358
vt 0.5100 0.5100 -0.7358
vt 0.5000 0.5142 -0.7358
vt 0.5037 0.5137 -0.7358
vt 0.4929 0.5123 -0.7358
vt 0.4963 0.5137 -0.7358
vt 0.4877 0.5071 -0.7358
vt 0.4900 0.5100 -0.7358
vt 0.4863 0.5037 -0.7358
vt -0.0000 -0.9716 0.0284
vt 0.0417 -0.9716 0.0284
vt 0.0417 -0.1684 0.0284
vt -0.0000 -0.1684 0.0284
vt 0.0833 -0.9716 0.0284
vt 0.0833 -0.1684 0.0284
vt 0.1250 -0.9716 0.0284
vt 0.1250 -0.1684 0.0284
vt 0.1667 -0.9716 0.0284
vt 0.1667 -0.1684 0.0284
vt 0.2083 -0.9716 0.0284
vt 0.2083 -0.1684 0.0284
vt 0.2500 -0.9716 0.0284
vt 0.2500 -0.1684 0.0284
vt 0.2917 -0.9716 0.0284
vt 0.2917 -0.1684 0.0284
vt 0.3333 -0.9716 0.0284
vt 0.3333 -0.1684 0.0284
vt 0.3750 -0.9716 0.0284
vt 0.3750 -0.1684 0.0284
vt 0.4167 -0.9716 0.0284
vt 0.4167 -0.1684 0.0284
vt 0.4583 -0.9716 0.0284
vt 0.4583 -0.1684 0.0284
vt 0.5000 -0.9716 0.0284
vt 0.5000 -0.1684 0.0284
vt 0.5417 -0.9716 0.0284
vt 0.5417 -0.1684 0.0284
vt 0.5833 -0.9716 0.0284
vt 0.5833 -0.1684 0.0284
vt 0.6250 -0.9716 0.0284
vt 0.6250 -0.1684 0.0284
vt 0.6667 -0.9716 0.0284
vt 0.6667 -0.1684 0.0284
vt 0.7083 -0.9716 0.0284
vt 0.7083 -0.1684 0.0284
vt 0.7500 -0.9716 0.0284
vt 0.7500 -0.1684 0.0284
vt 0.7917 -0.9716 0.0284
vt 0.7917 -0.1684 0.0284
vt 0.8333 -0.9716 0.0284
vt 0.8333 -0.1684 0.0284
vt 0.8750 -0.9716 0.0284
vt 0.8750 -0.1684 0.0284
vt 0.9167 -0.9716 0.0284
vt 0.9167 -0.1684 0.0284
vt 0.9583 -0.9716 0.0284
vt 0.9583 -0.1684 0.0284
vt 1.0000 -0.9716 0.0284
vt 1.0000 -0.1684 0.0284
vt 0.0417 1.9716 0.0110
vt -0.0000 1.9716 0.0110
vt 0.0833 1.9716 0.0110
vt 0.1250 1.9716 0.0110
vt 0.1667 1.9716 0.0110
vt 0.2083 1.9716 0.0110
vt 0.2500 1.9716 0.0110
vt 0.2917 1.9716 0.0110
vt 0.3333 1.9716 0.0110
vt 0.3750 1.9716 0.0110
vt 0.4167 1.9716 0.0110
vt 0.4583 1.9716 0.0110
vt 0.5000 1.9716 0.0110
vt 0.5417 1.9716 0.0110
vt 0.5833 1.9716 0.0110
vt 0.6250 1.9716 0.0110
vt 0.6667 1.9716 0.0110
vt 0.7083 1.9716 0.0110
vt 0.7500 1.9716 0.0110
vt 0.7917 1.9716 0.0110
vt 0.8333 1.9716 0.0110
vt 0.8750 1.9716 0.0110
vt 0.9167 1.9716 0.0110
vt 0.9583 1.9716 0.0110
vt 1.0000 1.9716 0.0110
vt 0.5000 0.5000 0.7358
vt 0.4947 0.5014 0.7358
vt 0.4945 0.5000 0.7358
vt 0.4947 0.4986 0.7358
vt 0.4953 0.4973 0.7358
vt 0.4961 0.4961 0.7358
vt 0.4973 0.4953 0.7358
vt 0.4986 0.4947 0.7358
vt 0.5000 0.4945 0.7358
vt 0.5014 0.4947 0.7358
vt 0.5027 0.4953 0.7358
vt 0.5039 0.4961 0.7358
vt 0.5047 0.4973 0.7358
vt 0.5053 0.4986 0.7358
vt 0.5055 0.5000 0.7358
vt 0.5053 0.5014 0.7358
vt 0.5047 0.5027 0.7358
vt 0.5039 0.5039 0.7358
vt 0.5027 0.5047 0.7358
vt 0.5014 0.5053 0.7358
vt 0.5000 0.5055 0.7358
vt 0.4986 0.5053 0.7358
vt 0.4973 0.5047 0.7358
vt 0.4961 0.5039 0.7358
vt 0.4953 0.5027 0.7358
# 125 texture coords

o poolstick
g poolstick
usemtl pool_stick_pattern
s 1
f 1/1/1 2/2/2 3/3/3 4/4/4 
f 1/1/1 5/5/5 6/6/6 2/2/2 
f 1/1/1 7/7/7 8/8/8 5/5/5 
f 1/1/1 9/9/9 10/10/10 7/7/7 
f 1/1/1 11/11/11 12/12/12 9/9/9 
f 1/1/1 13/13/13 14/14/14 11/11/11 
f 1/1/1 15/15/15 16/16/16 13/13/13 
f 1/1/1 17/17/17 18/18/18 15/15/15 
f 1/1/1 19/19/19 20/20/20 17/17/17 
f 1/1/1 21/21/21 22/22/22 19/19/19 
f 1/1/1 23/23/23 24/24/24 21/21/21 
f 1/1/1 4/4/4 25/25/25 23/23/23 
s 8
f 4/26/4 3/27/3 26/28/26 27/29/27 
f 3/27/3 2/30/2 28/31/28 26/28/26 
f 2/30/2 6/32/6 29/33/29 28/31/28 
f 6/32/6 5/34/5 30/35/30 29/33/29 
f 5/34/5 8/36/8 31/37/31 30/35/30 
f 8/36/8 7/38/7 32/39/32 31/37/31 
f 7/38/7 10/40/10 33/41/33 32/39/32 
f 10/40/10 9/42/9 34/43/34 33/41/33 
f 9/42/9 12/44/12 35/45/35 34/43/34 
f 12/44/12 11/46/11 36/47/36 35/45/35 
f 11/46/11 14/48/14 37/49/37 36/47/36 
f 14/48/14 13/50/13 38/51/38 37/49/37 
f 13/50/13 16/52/16 39/53/39 38/51/38 
f 16/52/16 15/54/15 40/55/40 39/53/39 
f 15/54/15 18/56/18 41/57/41 40/55/40 
f 18/56/18 17/58/17 42/59/42 41/57/41 
f 17/58/17 20/60/20 43/61/43 42/59/42 
f 20/60/20 19/62/19 44/63/44 43/61/43 
f 19/62/19 22/64/22 45/65/45 44/63/44 
f 22/64/22 21/66/21 46/67/46 45/65/45 
f 21/66/21 24/68/24 47/69/47 46/67/46 
f 24/68/24 23/70/23 48/71/48 47/69/47 
f 23/70/23 25/72/25 49/73/49 48/71/48 
f 25/72/25 4/74/4 27/75/27 49/73/49 
usemtl wood_
f 27/29/27 26/28/26 50/76/50 51/77/51 
f 26/28/26 28/31/28 52/78/52 50/76/50 
f 28/31/28 29/33/29 53/79/53 52/78/52 
f 29/33/29 30/35/30 54/80/54 53/79/53 
f 30/35/30 31/37/31 55/81/55 54/80/54 
f 31/37/31 32/39/32 56/82/56 55/81/55 
f 32/39/32 33/41/33 57/83/57 56/82/56 
f 33/41/33 34/43/34 58/84/58 57/83/57 
f 34/43/34 35/45/35 59/85/59 58/84/58 
f 35/45/35 36/47/36 60/86/60 59/85/59 
f 36/47/36 37/49/37 61/87/61 60/86/60 
f 37/49/37 38/51/38 62/88/62 61/87/61 
f 38/51/38 39/53/39 63/89/63 62/88/62 
f 39/53/39 40/55/40 64/90/64 63/89/63 
f 40/55/40 41/57/41 65/91/65 64/90/64 
f 41/57/41 42/59/42 66/92/66 65/91/65 
f 42/59/42 43/61/43 67/93/67 66/92/66 
f 43/61/43 44/63/44 68/94/68 67/93/67 
f 44/63/44 45/65/45 69/95/69 68/94/68 
f 45/65/45 46/67/46 70/96/70 69/95/69 
f 46/67/46 47/69/47 71/97/71 70/96/70 
f 47/69/47 48/71/48 72/98/72 71/97/71 
f 48/71/48 49/73/49 73/99/73 72/98/72 
f 49/73/49 27/75/27 51/100/51 73/99/73 
s 1
f 74/101/74 73/102/73 51/103/51 50/104/50 
f 74/101/74 50/104/50 52/105/52 53/106/53 
f 74/101/74 53/106/53 54/107/54 55/108/55 
f 74/101/74 55/108/55 56/109/56 57/110/57 
f 74/101/74 57/110/57 58/111/58 59/112/59 
f 74/101/74 59/112/59 60/113/60 61/114/61 
f 74/101/74 61/114/61 62/115/62 63/116/63 
f 74/101/74 63/116/63 64/117/64 65/118/65 
f 74/101/74 65/118/65 66/119/66 67/120/67 
f 74/101/74 67/120/67 68/121/68 69/122/69 
f 74/101/74 69/122/69 70/123/70 71/124/71 
f 74/101/74 71/124/71 72/125/72 73/102/73 
# 72 polygons

